# xmcd CD database file
#
# Track frame offsets:
#	150
#	14572
#	33892
#	53337
#	70056
#	85043
#	97444
#	103432
#	113230
#	127322
#	135460
#	159801
#	196423
#	219454
#
# Disc length: 3245 seconds
#
# Revision: 0
# Processed by: cddbd v1.5.2PL0 Copyright (c) Steve Scherf et al.
# Submitted via: CDex 1.70beta2
#
DISCID=c30cab0e
DTITLE=Horn_and_Pipe - Zweiheit
DYEAR=2009
DGENRE=Jazz
TTITLE0=Hevenu Schalom
TTITLE1=Toccata
TTITLE2=Tears in Heaven
TTITLE3=Hornpipe
TTITLE4=Vaterunser
TTITLE5=Melancholie
TTITLE6=Melancholie Kanon
TTITLE7=Weihnachtsliedermedley-Vom Himmel hoch
TTITLE8=Weihnachtsliedermedley-Es kommt ein Schiff
TTITLE9=Weihnachtsliedermedley-Oh du fröhliche
TTITLE10=Exercitium
TTITLE11=Ballad for a Friend
TTITLE12=Lieber Mozart Tango
TTITLE13=Verleih uns Frieden
EXTD=YEAR: 2009
EXTT0=
EXTT1=
EXTT2=
EXTT3=
EXTT4=
EXTT5=
EXTT6=
EXTT7=
EXTT8=
EXTT9=
EXTT10=
EXTT11=
EXTT12=
EXTT13=
PLAYORDER=
